<svg width="1110" height="32" viewBox="0 0 1110 32" fill="none" xmlns="http://www.w3.org/2000/svg">
<g clip-path="url(#clip0_878_100574)">
<path fill-rule="evenodd" clip-rule="evenodd" d="M1025.4 29.0844C1023.94 29.346 1022.45 29.4244 1020.9 29.6332L1016.19 15.6267V30.2344C1014.73 30.3911 1013.39 30.6002 1012 30.8092V4.05029H1015.91L1021.26 19.2331V4.05029H1025.4V29.0844ZM1033.51 13.8497C1035.1 13.8497 1037.55 13.7713 1039.01 13.7713V17.9523C1037.19 17.9523 1035.05 17.9523 1033.51 18.0307V24.2502C1035.93 24.0934 1038.34 23.8842 1040.79 23.8058V27.8298L1029.39 28.7446V4.05029H1040.79V8.23138H1033.51V13.8497ZM1056.1 8.23148H1051.83V27.4644C1050.44 27.4644 1049.05 27.4644 1047.71 27.5165V8.23148H1043.44V4.05029H1056.1L1056.1 8.23148V8.23148ZM1062.78 13.5623H1068.42V17.7433H1062.78V27.2293H1058.75V4.05029H1070.25V8.23138H1062.78V13.5623ZM1076.93 23.5707C1079.28 23.6228 1081.64 23.8061 1083.93 23.9365V28.0654C1080.25 27.83 1076.57 27.5952 1072.82 27.5165V4.05029H1076.93V23.5707ZM1087.41 28.3528C1088.72 28.4314 1090.11 28.5098 1091.44 28.6663V4.05029H1087.41V28.3528ZM1109.48 4.05029L1104.26 16.7765L1109.48 30.8092C1107.94 30.6002 1106.39 30.3127 1104.85 30.0513L1101.89 22.3165L1098.88 29.4244C1097.39 29.1628 1095.95 29.0844 1094.45 28.8754L1099.75 16.6196L1094.97 4.05029H1099.39L1102.1 11.0798L1104.98 4.05029H1109.48Z" fill="#C4C4C4"/>
<path fill-rule="evenodd" clip-rule="evenodd" d="M858.13 27.0459C854.533 24.7762 849.65 24.378 841.775 26.5174C840.575 26.7937 839.488 27.0558 838.498 27.2949L838.498 27.2949C832.562 28.7273 830.056 29.332 826.906 27.2016C825.493 25.9804 824.987 24.0141 825.365 21.1818C826.242 16.5647 828.612 12.1214 832.821 7.19279C835.17 4.62893 837.35 2.42866 840.227 1.54513C842.433 0.990857 842.227 2.68822 841.96 2.93097C841.678 2.93097 841.205 2.97441 840.84 3.20805C840.543 3.4334 839.728 4.16106 839.685 5.13988C839.621 6.63829 841.205 6.32642 841.888 5.50371C842.624 4.57662 843.712 2.80125 842.856 1.14662C842.498 0.557668 841.878 0.150636 841.108 0.0120394C838.473 -0.135434 836.019 1.09466 833.754 2.45458C828.801 5.82411 824.839 10.4931 822.597 15.6038C821.304 18.6873 820.135 23.1044 821.887 26.6995C823.243 29.194 826.057 30.5191 829.414 30.242C831.403 30.0374 833.742 29.4742 835.575 29.033L835.575 29.033L835.576 29.0328C835.913 28.9516 836.234 28.8744 836.532 28.8044C836.705 28.7636 836.943 28.6995 837.234 28.621L837.234 28.6209C840.167 27.8306 848.541 25.5733 851.471 30.7971C851.471 30.7971 852.542 28.761 855.219 28.7175C857.42 28.5187 860.594 29.3414 862.906 31.0042C862.136 29.8699 859.952 28.1981 858.13 27.0459ZM913.121 4.27156C910.913 5.46401 908.623 6.23623 905.852 5.96766C905.084 6.79069 904.336 7.63863 903.646 8.51169C907.536 9.45209 911.66 7.36145 913.96 5.37177C916.394 3.365 917.641 0.837951 917.641 0.837951C917.641 0.837951 915.817 2.81925 913.121 4.27156ZM880.764 16.2865C880.469 15.6821 879.771 15.2958 879.027 15.3377C876.61 15.5478 874.246 17.4368 873.005 20.1486C872.354 21.5425 871.998 22.6926 871.765 24.523C872.517 23.7004 874.05 22.3487 875.789 21.6097C875.789 21.6097 876.026 19.855 877.233 18.2933C877.69 17.6466 878.603 16.6055 879.63 16.8825C880.527 17.168 880.211 19.5275 879.02 21.8107C878.138 23.4902 876.788 25.1699 875.423 26.3283C874.216 27.3022 872.43 28.4776 870.867 27.571C869.883 27.0171 869.381 25.858 869.487 24.3636C869.957 20.1237 871.988 16.5133 874.894 12.3993C877.89 8.57903 881.193 4.65807 885.642 2.56709C886.55 2.13056 887.39 2.02983 888.117 2.29852C888.117 2.29852 883.94 4.48151 881.949 8.52017L881.927 8.56498C881.422 9.58481 880.748 10.9474 881.448 12.1556C881.818 12.7936 882.476 12.8441 883.006 12.8104C885.447 12.2729 887.023 10.1068 888.312 8.12552C889.059 6.62262 889.722 5.1281 889.722 3.46562C889.722 3.26416 889.711 2.99559 889.694 2.7939C890.859 2.20639 893.25 3.24729 893.25 3.24729C894.348 3.59289 896.175 4.73614 897.768 5.73244L897.768 5.73247C898.884 6.4312 899.886 7.05764 900.439 7.28596C901.093 6.564 902.169 5.47262 902.775 4.92675L901.898 4.41451C900.553 3.63406 899.134 2.89206 897.733 2.15923L897.733 2.1592L897.733 2.15914L897.55 2.06356C894.233 0.342568 891.533 0.94694 890.16 1.4172C889.62 1.60179 889.126 1.76137 889.126 1.76137C888.106 0.703494 886.434 0.803993 885.202 1.08966C880.77 2.29863 876.656 5.24558 872.245 10.359C869.002 14.364 866.991 17.8233 865.918 21.2404C865.092 23.5409 864.841 26.9245 866.858 28.9313C868.573 30.6353 870.847 30.2661 872.453 29.6535C875.932 28.0246 879.059 24.5148 880.618 20.4761C880.994 19.2757 881.411 17.5797 880.764 16.2865ZM834.368 13.1464C837.315 9.40184 840.995 7.21885 842.826 8.36071C844.518 9.53233 843.219 12.4762 842.801 13.4241L842.801 13.4244L842.801 13.4247C842.758 13.5225 842.724 13.599 842.704 13.6501C843.361 13.8099 845.462 12.3827 846.686 11.0979C847.659 10.0734 849.326 8.75536 850.379 8.37769C851.166 8.01642 852.381 7.89905 853.178 8.35222C853.713 8.64637 854.071 9.25074 854.109 9.88896C854.214 11.6689 852.035 14.5909 850.943 13.1132C850.718 12.475 850.964 11.7948 851.671 11.0894C852.03 10.7368 852.472 10.5775 853.023 10.5943C853.24 10.2668 853.185 9.78858 852.841 9.59515C852.481 9.3852 851.755 9.52838 851.086 10.0234C848.719 11.8119 846.639 14.776 845.432 18.0422C845.219 18.655 845.102 19.5881 845.481 20.2263C846.518 21.7452 848.944 19.6311 848.944 19.6311C850.582 18.2458 852.162 16.3265 853.402 14.6219C856.625 10.189 860.905 6.36633 862.795 8.8515C862.811 8.87054 862.829 8.89891 862.846 8.92587C862.868 8.95868 862.887 8.98938 862.899 8.99858C862.926 8.96496 863.259 8.45249 863.259 8.45249H866.31C866.31 8.45249 859.848 19.1046 859.84 19.1215C859.706 19.3812 859.62 19.748 859.837 19.9243C860 20.0336 860.275 19.9132 860.316 19.8954L860.321 19.8932C861.835 19.1951 864.087 16.2257 864.517 15.6591C864.563 15.5986 864.588 15.5654 864.589 15.5654H865.64C863.993 17.8598 861.953 20.5143 859.421 22.2102C858.718 22.6552 857.794 23.1293 856.88 22.8184C856.013 22.2994 856.068 21.6661 856.134 20.9125L856.134 20.9124L856.134 20.9122C856.142 20.8245 856.15 20.7351 856.156 20.6441C856.156 20.6441 856.154 20.6457 856.151 20.6488C856.148 20.6525 856.143 20.6584 856.135 20.6663L856.135 20.6665C855.896 20.928 853.645 23.3857 851.744 22.8605C851.08 22.659 850.019 22.1128 850.806 19.5099C850.806 19.5099 850.867 19.2753 850.913 19.0996C850.73 19.2672 850.407 19.5607 850.407 19.5607C848.513 21.324 846.365 23.3057 843.675 22.8772C841.861 22.3414 841.721 20.6995 841.66 19.9825C841.653 19.9019 841.648 19.8331 841.64 19.7787C841.429 18.1344 843.349 14.9337 843.615 14.4905L843.615 14.4904L843.615 14.4901L843.615 14.4899C843.634 14.4583 843.645 14.4409 843.645 14.4392C843.062 14.5988 842.544 14.7164 842.115 14.7916C842.081 14.8421 841.386 15.9336 841.386 15.9336L841.343 16.0014L841.343 16.0014C840.6 17.173 839.829 18.3883 838.837 19.4015L838.645 19.5948C837.157 21.2486 833.659 24.3382 831.775 22.2141C830.508 20.4089 831.672 16.5052 834.368 13.1464ZM860.277 10.2415C859.856 10.5941 858.129 12.6848 857.535 13.4655C855.149 16.5219 854.376 18.7297 854.312 19.4515C854.289 19.6699 854.368 19.8798 854.569 20.0058C854.735 20.1238 854.985 20.107 855.137 20.0646C856.201 19.5022 856.853 18.6961 857.501 17.756C857.501 17.756 857.963 17.0845 857.96 17.0928C859.427 14.7753 860.987 12.1976 862.308 9.94747C862.259 9.57829 861.693 9.0572 860.277 10.2415ZM840.938 14.8172C840.938 14.8172 840.912 14.893 840.899 14.9178C840.895 14.9178 839.568 16.9746 839.568 16.9746L839.549 16.9988C838.752 18.0109 837.758 19.2721 836.518 19.8799C836.148 19.9974 835.636 20.0732 835.375 19.7628C834.821 19.1329 835.107 18.2596 835.338 17.5546L835.42 17.3026C836.084 15.59 837.138 14.0784 838.164 12.6762C838.176 12.6679 838.205 12.6596 838.216 12.6596C838.216 12.6625 838.217 12.6644 838.219 12.6663C838.221 12.67 838.223 12.6738 838.224 12.6848C838.867 13.8601 840.074 14.4056 840.977 14.6579C840.982 14.6579 840.988 14.6662 840.988 14.6831C840.988 14.7081 840.973 14.7419 840.938 14.8172ZM841.604 13.684C841.604 13.684 842.189 12.4078 842.195 12.391C842.396 11.8199 842.573 11.207 842.573 10.6615C842.573 10.2583 842.476 9.88896 842.221 9.60341C841.806 9.29262 841.092 9.45209 840.632 9.75462C840.154 10.0987 839.067 11.0475 839.331 12.2565C839.523 12.8778 840.145 13.3984 840.97 13.6417L841.233 13.684L841.253 13.6884C841.398 13.7204 841.523 13.7481 841.604 13.684ZM883.182 11.8366C884.198 11.6019 888.304 8.65463 888.764 3.63369C888.782 3.44875 888.784 3.31475 888.722 3.1048C886.193 4.33913 883.835 6.74859 882.453 9.58677C881.515 11.6939 882.566 11.954 883.182 11.8366ZM868.483 8.45272H871.38L869.745 10.9767H866.849L868.483 8.45272ZM905.709 27.2377C905.399 27.4414 904.962 27.2848 905.125 26.8179C905.532 25.6292 907.149 23.2066 907.149 23.2066L911.654 15.5114H908.569C908.422 15.7434 908.108 16.2762 908.108 16.2762C907.966 16.0472 907.539 15.5379 907.363 15.4278C906.609 14.969 905.503 15.1859 904.74 15.6019C901.465 17.4462 899.064 21.0672 897.166 23.9291L897.092 24.04C897.092 24.04 895.083 27.2399 893.967 27.4778C893.097 27.5458 893.186 26.416 893.224 26.1528C893.561 24.2505 894.343 22.442 895.131 20.8032C896.733 19.7334 898.562 18.3324 900.224 16.7956C903.83 13.4753 906.871 9.71377 907.315 8.87319C907.315 8.87319 906.834 8.9667 906.266 8.98352C903.491 12.7111 897.813 18.1286 896.092 18.9351C896.855 17.1685 901.782 8.73721 905.974 4.70406L906.634 4.09251C907.654 3.13301 908.711 2.1481 909.535 1.98672C909.622 1.97825 909.734 1.98672 909.831 2.18233C909.868 2.92939 909.579 3.48143 909.248 4.10968L908.783 5.02684C908.783 5.02684 909.441 4.90791 909.873 4.7717C910.374 3.8636 910.929 2.84435 910.724 1.63042C910.656 1.23977 910.363 0.942639 909.979 0.87465C908.728 0.645391 907.365 1.53667 906.268 2.25867L906.224 2.28397C900.586 6.53802 895.825 12.6686 891.662 21.0408C891.361 21.2613 890.195 21.5248 889.997 21.3973C890.408 20.5823 890.926 19.4867 891.185 18.298C891.229 17.9582 891.271 17.6103 891.271 17.2707C891.271 16.5399 891.089 15.8524 890.409 15.3771C889.612 14.995 888.627 15.1734 887.963 15.4618C884.987 16.6506 882.764 19.5887 881.159 22.0084C880.296 23.5456 879.435 25.1921 879.197 27.0775C879.029 28.5546 879.371 29.5058 880.243 29.9814C881.14 30.4226 882.269 29.964 882.712 29.7434C885.726 28.2149 887.833 25.1499 889.493 22.3477C889.503 22.3464 889.535 22.3446 889.583 22.342L889.583 22.342C889.841 22.3277 890.574 22.2871 891.151 22.144C891.16 22.144 891.164 22.144 891.179 22.1528C891.14 22.2797 890.785 23.299 890.785 23.299C889.733 26.2705 889.247 28.2916 890.241 29.4887C891.661 31.1785 894.012 29.4296 895.925 27.1196C895.514 29.8875 897.004 30.3208 898.139 30.1088C899.444 29.7693 900.897 28.4274 901.572 27.7398C901.355 28.5463 901.414 29.9901 902.6 30.1342C903.298 30.2585 903.846 29.9622 904.432 29.6447L904.433 29.6444C904.529 29.5922 904.627 29.5393 904.727 29.4877C907.253 28.163 910.277 23.7487 911.062 22.4724H910.032L909.91 22.6501C908.813 24.2493 907.431 26.2633 905.709 27.2377ZM883.035 26.9421C882.874 26.7127 882.821 26.4621 882.816 26.1911C882.785 24.526 884.645 21.5445 885.958 19.9202H885.961C886.511 21.0804 887.757 21.8262 888.509 22.1405C887.575 24.1445 884.371 28.4364 883.035 26.9421ZM887.073 19.3937C887.376 20.7947 888.947 21.3045 889.036 21.2446C889.54 20.3991 889.929 19.4945 890.192 18.5531L890.199 18.4935L890.203 18.4671C890.236 18.2111 890.272 17.9326 890.272 17.6611C890.272 17.2034 890.173 16.7786 889.805 16.5404C889.41 16.4051 888.87 16.4981 888.512 16.7701C887.677 17.2451 886.815 18.1875 887.073 19.3937ZM901.637 26.4072C901.636 26.4072 901.339 26.6619 901.339 26.6619L901.311 26.686C900.896 27.0438 900.468 27.4131 899.953 27.222C899.807 27.1712 899.705 26.9845 899.68 26.8397C899.656 25.7988 900.141 24.8341 900.614 23.8947L900.618 23.8851L900.74 23.6388L900.811 23.5249C902.157 21.3592 903.726 18.836 906.011 17.0756C906.403 16.8033 906.828 16.5745 907.277 16.7529C907.38 16.8462 907.501 17.0076 907.501 17.1687C907.501 17.2199 907.453 17.3557 907.426 17.398C906.852 18.2921 906.302 19.2256 905.766 20.1343L905.765 20.135L905.557 20.4889C904.381 22.5013 903.162 24.5813 901.637 26.4072Z" fill="#C4C4C4"/>
<path fill-rule="evenodd" clip-rule="evenodd" d="M643.176 7H647.008V19.1532C647.008 25.5474 642.922 27.7917 636.994 27.7917C631.086 27.7917 627 25.5474 627 19.1532V7.48698C627 7.14821 627.169 7 627.508 7H631.34V18.9627C631.34 22.7949 633.034 24.3829 636.994 24.3829C640.974 24.3829 642.668 22.7949 642.668 18.9627V7.48698C642.668 7.14821 642.837 7 643.176 7ZM686.559 10.3241V15.448H696.256C696.426 15.448 696.489 15.5327 696.426 15.702L695.367 18.3275C695.261 18.5604 695.113 18.6662 694.795 18.6662H689.1C687.237 18.6662 686.559 19.2379 686.559 20.4871V24.1077H699.686C699.856 24.1077 699.919 24.1924 699.856 24.3617L698.755 27.093C698.649 27.3259 698.501 27.4318 698.183 27.4318H683.807C682.706 27.4318 682.282 27.0507 682.282 26.2249V8.41858C682.282 7.42346 682.833 7 684.273 7H699.686C699.856 7 699.919 7.08469 699.856 7.2329L698.755 9.98537C698.649 10.2183 698.501 10.3241 698.183 10.3241H686.559ZM674.385 21.7786C674.385 25.865 671.505 27.4318 667.461 27.4318H656.748C655.626 27.4318 655.223 27.0507 655.223 26.2249V8.41858C655.223 7.42346 655.753 7 657.214 7H665.916C669.727 7 673.411 7.65636 673.411 12.1873C673.411 14.1352 672.712 15.7867 671.04 16.6548C673.347 17.2688 674.385 19.3438 674.385 21.7786ZM659.437 15.5115H666.233C668.478 15.5115 669.113 14.6434 669.113 12.8649C669.113 11.0864 668.478 10.2394 666.233 10.2394H659.437V15.5115ZM670.087 21.3975C670.087 19.5132 669.43 18.5815 667.017 18.5815H661.999C660.136 18.5815 659.437 19.1532 659.437 20.4024V24.1924H667.017C669.43 24.1924 670.087 23.2607 670.087 21.3975ZM726.407 27.4318H722.511C722.193 27.4318 722.066 27.3048 721.939 27.093L717.81 19.6402H714.02C712.157 19.6402 711.458 20.2119 711.458 21.4611V27.4318H707.732C707.393 27.4318 707.224 27.2624 707.224 26.9448V8.41858C707.224 7.42346 707.774 7 709.214 7H717.959C723.061 7 726.131 8.33389 726.131 13.2883C726.131 17.1206 724.289 18.6239 722.003 19.2167L726.597 27.0719C726.682 27.1989 726.682 27.4318 726.407 27.4318ZM721.833 13.373C721.833 11.2981 721.262 10.2818 718.594 10.2818H711.458V16.4643H718.594C721.262 16.4643 721.833 15.4691 721.833 13.373Z" fill="#C4C4C4"/>
<path fill-rule="evenodd" clip-rule="evenodd" d="M487.041 29.5609H480.453L484.57 5.43692H491.159L487.041 29.5609ZM474.91 5.43692L468.629 22.0296L467.886 18.4565L467.887 18.4578L465.67 7.60901C465.67 7.60901 465.402 5.43692 462.545 5.43692H452.161L452.039 5.8454C452.039 5.8454 455.215 6.47521 458.931 8.60277L464.655 29.5615H471.519L482.001 5.43692H474.91ZM526.73 29.5609H532.779L527.505 5.43628H522.209C519.763 5.43628 519.168 7.23409 519.168 7.23409L509.342 29.5609H516.21L517.583 25.9775H525.958L526.73 29.5609ZM519.48 21.0274L522.942 11.9996L524.889 21.0274H519.48ZM509.857 11.2382L510.797 6.0577C510.797 6.0577 507.896 5.00586 504.872 5.00586C501.602 5.00586 493.838 6.36809 493.838 12.9921C493.838 19.2244 502.951 19.3019 502.951 22.5755C502.951 25.8491 494.777 25.2625 492.08 23.1982L491.1 28.6149C491.1 28.6149 494.042 29.9771 498.537 29.9771C503.032 29.9771 509.815 27.7579 509.815 21.7179C509.815 15.4455 500.621 14.8616 500.621 12.1345C500.621 9.40682 507.038 9.75722 509.857 11.2382V11.2382Z" fill="#C4C4C4"/>
<path fill-rule="evenodd" clip-rule="evenodd" d="M241.576 16.8271H228V4H241.576V16.8271ZM256.056 16.8271H242.481V4H256.056V16.8271ZM228 30.5705H241.576V17.7434H228V30.5705ZM256.056 30.5705H242.481V17.7434H256.056V30.5705ZM357.421 13.6568V15.9669H354.603V21.6521C354.603 22.3807 354.732 22.9016 354.985 23.1994C355.235 23.4946 355.639 23.6441 356.184 23.6441C356.329 23.6441 356.516 23.612 356.74 23.5478C356.963 23.4848 357.154 23.4 357.306 23.2964L357.421 23.2192V25.5506L357.384 25.573C357.216 25.6708 356.931 25.7625 356.513 25.8542C356.102 25.9435 355.699 25.9891 355.317 25.9891C352.99 25.9891 351.81 24.6984 351.81 22.1514V15.9669H347.633V25.6988H344.816V15.9669H342.855V13.6568H344.816V11.9902C344.816 11.1529 344.998 10.3962 345.356 9.74104C345.715 9.08512 346.228 8.56923 346.879 8.20785C347.53 7.84699 348.277 7.6649 349.099 7.6649C349.751 7.6649 350.277 7.73618 350.664 7.87774L350.713 7.89603V10.3288L350.609 10.2816C350.194 10.0934 349.782 9.99796 349.384 9.99796C348.831 9.99796 348.397 10.1789 348.093 10.5348C347.788 10.8951 347.633 11.4352 347.633 12.1411V13.657H351.81V10.9358L351.862 10.9197L354.509 10.0953L354.603 10.0656V13.6568H357.421ZM334.169 22.6196C334.737 23.2994 335.543 23.6445 336.565 23.6445C337.593 23.6445 338.38 23.3058 338.903 22.6389C339.43 21.967 339.697 20.9625 339.697 19.6549C339.697 18.3631 339.413 17.3718 338.853 16.7075C338.296 16.0466 337.519 15.7118 336.542 15.7118C335.536 15.7118 334.737 16.0623 334.169 16.7531C333.597 17.4484 333.308 18.4478 333.308 19.7246C333.308 20.9623 333.597 21.9364 334.169 22.6196ZM336.69 13.3667C334.74 13.3667 333.191 13.9486 332.086 15.0961C330.983 16.2438 330.423 17.832 330.423 19.817C330.423 21.7024 330.969 23.219 332.047 24.3238C333.124 25.429 334.591 25.9889 336.405 25.9889C338.296 25.9889 339.814 25.3989 340.918 24.2355C342.022 23.0733 342.581 21.5001 342.581 19.5615C342.581 17.6466 342.056 16.1188 341.021 15.0213C339.985 13.9233 338.527 13.3667 336.69 13.3667ZM322.62 14.3934C323.458 13.7122 324.555 13.3667 325.882 13.3667C326.288 13.3667 326.755 13.4158 327.269 13.513C327.786 13.6108 328.212 13.7314 328.535 13.8723L328.579 13.8917V16.5105L328.464 16.4304C328.114 16.1881 327.695 15.99 327.218 15.8421C326.74 15.6942 326.26 15.6187 325.791 15.6187C325.285 15.6187 324.882 15.7349 324.592 15.9632C324.305 16.1904 324.165 16.471 324.165 16.8212C324.165 17.2162 324.278 17.5282 324.502 17.7488C324.733 17.9771 325.295 18.2746 326.172 18.6329C327.273 19.0847 328.062 19.5959 328.516 20.1527C328.974 20.7141 329.206 21.4102 329.206 22.2219C329.206 23.347 328.775 24.267 327.924 24.957C327.078 25.6423 325.919 25.9894 324.479 25.9894C324.012 25.9894 323.475 25.9261 322.884 25.8017C322.292 25.6774 321.79 25.5195 321.391 25.3322L321.348 25.3119V22.5511L321.465 22.6365C321.947 22.9885 322.479 23.263 323.042 23.4505C323.609 23.6408 324.128 23.7374 324.582 23.7374C325.806 23.7374 326.401 23.3437 326.401 22.5347C326.401 22.2506 326.343 22.0204 326.227 21.8521C326.108 21.6802 325.897 21.5037 325.6 21.3281C325.296 21.1489 324.818 20.9216 324.176 20.6529C323.413 20.3191 322.837 19.991 322.464 19.6778C322.088 19.362 321.805 18.9858 321.623 18.5584C321.441 18.1325 321.349 17.6303 321.349 17.065C321.349 15.9775 321.776 15.0787 322.62 14.3934ZM314.006 23.6445C312.984 23.6445 312.178 23.2994 311.61 22.6196C311.039 21.9364 310.75 20.9625 310.75 19.7246C310.75 18.4478 311.039 17.4484 311.611 16.7531C312.179 16.0623 312.977 15.7118 313.984 15.7118C314.96 15.7118 315.737 16.0466 316.294 16.7075C316.854 17.3718 317.138 18.3631 317.138 19.6549C317.138 20.9625 316.871 21.967 316.344 22.6389C315.821 23.3058 315.035 23.6445 314.006 23.6445ZM309.528 15.0961C310.632 13.9486 312.181 13.3667 314.132 13.3667C315.969 13.3667 317.426 13.9233 318.462 15.0213C319.498 16.1188 320.023 17.6466 320.023 19.5615C320.023 21.5001 319.463 23.0733 318.359 24.2355C317.255 25.3989 315.737 25.9889 313.847 25.9889C312.032 25.9889 310.566 25.429 309.489 24.3238C308.411 23.219 307.864 21.7032 307.864 19.817C307.864 17.832 308.424 16.2438 309.528 15.0961ZM303.589 15.7423V13.6568H300.807V25.6985H303.589V19.5387C303.589 18.4913 303.822 17.6308 304.283 16.9809C304.737 16.3387 305.343 16.0133 306.082 16.0133C306.333 16.0133 306.614 16.0553 306.918 16.1386C307.22 16.2213 307.438 16.3111 307.567 16.4057L307.684 16.4919V13.6363L307.639 13.6166C307.38 13.5045 307.013 13.4479 306.55 13.4479C305.851 13.4479 305.225 13.6767 304.689 14.127C304.219 14.5228 303.879 15.0655 303.619 15.7423H303.589ZM292.442 14.1947C293.41 13.6454 294.548 13.3667 295.825 13.3667C296.322 13.3667 296.845 13.4237 297.38 13.5366C297.917 13.6499 298.35 13.7992 298.667 13.98L298.705 14.0016V16.7359L298.588 16.6496C297.745 16.027 296.854 15.7118 295.939 15.7118C294.87 15.7118 293.992 16.0808 293.33 16.8082C292.666 17.5378 292.329 18.5267 292.329 19.7474C292.329 20.9605 292.652 21.9245 293.289 22.6111C293.926 23.2967 294.802 23.6445 295.894 23.6445C296.287 23.6445 296.735 23.5562 297.227 23.3815C297.72 23.2066 298.178 22.9639 298.588 22.6599L298.705 22.573V25.168L298.668 25.1894C297.763 25.7201 296.634 25.9893 295.312 25.9893C294.179 25.9893 293.156 25.736 292.271 25.2365C291.384 24.7364 290.684 24.0153 290.189 23.0936C289.694 22.1733 289.444 21.1292 289.444 19.9915C289.444 18.6926 289.702 17.5279 290.21 16.5308C290.721 15.5313 291.471 14.7453 292.442 14.1947ZM287.528 13.657H284.746V25.6985H287.528V13.657ZM284.98 9.00037C285.308 8.68588 285.707 8.52717 286.165 8.52717C286.647 8.52717 287.054 8.69058 287.375 9.01307C287.696 9.3362 287.859 9.72922 287.859 10.1814C287.859 10.6428 287.691 11.0325 287.361 11.34C287.033 11.6456 286.631 11.8008 286.165 11.8008C285.7 11.8008 285.299 11.6456 284.975 11.3395C284.648 11.0325 284.483 10.6427 284.483 10.1814C284.483 9.71283 284.65 9.31575 284.98 9.00037ZM279.224 12.7685V25.6985H282.063V8.89579H278.133L273.139 21.3764L268.291 8.89579H264.202V25.6984H266.87V12.7673H266.961L272.08 25.6985H274.093L279.132 12.7685H279.224Z" fill="#C4C4C4"/>
<path fill-rule="evenodd" clip-rule="evenodd" d="M69.2765 16.8098C68.1819 16.8098 67.3928 17.1692 66.5927 17.5353V25.82C67.3591 25.8931 67.7984 25.8931 68.5255 25.8931C71.1528 25.8931 71.513 24.6884 71.513 23.0064V19.0496C71.513 17.8074 71.1013 16.8098 69.2765 16.8098V16.8098ZM51.8276 16.3577C50.0047 16.3577 49.5887 17.3596 49.5887 18.6005V19.2978H54.0641V18.6005C54.0641 17.3596 53.6481 16.3577 51.8276 16.3577ZM18.0256 24.9808C18.0256 25.9625 18.4883 26.4724 19.5093 26.4724C20.6045 26.4724 21.2531 26.1149 22.0526 25.7475V23.7823H19.6578C18.5239 23.7823 18.0256 23.9936 18.0256 24.9808ZM86.2499 16.8098C84.4239 16.8098 83.7913 17.8074 83.7913 19.0496V23.5827C83.7913 24.8279 84.4239 25.8286 86.2499 25.8286C88.071 25.8286 88.7085 24.8279 88.7085 23.5827V19.0496C88.7079 17.8074 88.0704 16.8098 86.2499 16.8098V16.8098ZM9.07723 30.0637H3.70966V17.0561H1.02771V12.5741H3.71027V9.88213C3.71027 6.2251 5.22397 4.05103 9.52637 4.05103H13.1084V8.53432H10.8695C9.19442 8.53432 9.08398 9.16092 9.08398 10.33L9.07723 12.5735H13.133L12.6587 17.0555H9.07723V30.0637V30.0637ZM27.4214 30.0975H22.9478L22.7545 28.9647C20.7119 30.0975 18.8889 30.2812 17.6863 30.2812C14.4055 30.2812 12.6593 28.0868 12.6593 25.0521C12.6593 21.4719 14.697 20.1941 18.3422 20.1941H22.0526V19.42C22.0526 17.5924 21.8433 17.0561 19.0362 17.0561H14.4466L14.8952 12.5741H19.9118C26.0709 12.5741 27.4214 14.5221 27.4214 19.4563V30.0975V30.0975ZM42.6338 17.3848C39.85 16.9069 39.0505 16.8018 37.711 16.8018C35.3052 16.8018 34.5781 17.3332 34.5781 19.3789V23.2485C34.5781 25.2941 35.3052 25.828 37.711 25.828C39.0505 25.828 39.85 25.7211 42.6338 25.2413V29.6134C40.1954 30.1608 38.6069 30.3045 37.2644 30.3045C31.5016 30.3045 29.2112 27.2704 29.2112 22.8872V19.7475C29.2112 15.3606 31.5016 12.321 37.2644 12.321C38.6069 12.321 40.1954 12.4653 42.6338 13.0152V17.3848V17.3848ZM59.4311 22.8872H49.5881V23.2485C49.5881 25.2941 50.3158 25.828 52.721 25.828C54.8832 25.828 56.203 25.7211 58.9819 25.2413V29.6134C56.3018 30.1608 54.9053 30.3045 52.2761 30.3045C46.5128 30.3045 44.2211 27.2704 44.2211 22.8872V19.2972C44.2211 15.462 45.9213 12.321 51.827 12.321C57.7327 12.321 59.4311 15.4257 59.4311 19.2972V22.8872V22.8872ZM76.8794 22.9702C76.8794 27.2065 75.67 30.2965 68.3439 30.2965C65.6981 30.2965 64.1464 30.0637 61.2264 29.614V5.39761L66.5921 4.50132V12.9722C67.7518 12.5409 69.2526 12.3216 70.6184 12.3216C75.9848 12.3216 76.8787 14.7303 76.8787 18.6011V22.9702H76.8794ZM94.0798 23.0623C94.0798 26.7169 92.5728 30.2615 86.2677 30.2615C79.9595 30.2615 78.4243 26.7169 78.4243 23.0623V19.5337C78.4243 15.8773 79.9595 12.332 86.2677 12.332C92.5728 12.332 94.0798 15.8773 94.0798 19.5337V23.0623ZM111.269 23.0623C111.269 26.7169 109.76 30.2615 103.456 30.2615C97.1477 30.2615 95.6125 26.7169 95.6125 23.0623V19.5337C95.6125 15.8773 97.1477 12.332 103.456 12.332C109.76 12.332 111.269 15.8773 111.269 19.5337V23.0623ZM128.908 30.0637H123.092L118.173 21.8423V30.0637H112.806V5.397L118.173 4.50071V20.3802L123.092 12.5741H128.908L123.538 21.0928L128.908 30.0637V30.0637ZM103.437 16.8098C101.615 16.8098 100.982 17.8074 100.982 19.0496V23.5827C100.982 24.8279 101.615 25.8286 103.437 25.8286C105.258 25.8286 105.902 24.8279 105.902 23.5827V19.0496C105.902 17.8074 105.258 16.8098 103.437 16.8098ZM131.972 26.9958C132.876 26.9958 133.595 27.7336 133.595 28.6551C133.595 29.5907 132.875 30.3205 131.965 30.3205C131.059 30.3205 130.325 29.5907 130.325 28.6551C130.325 27.7336 131.059 26.9958 131.965 26.9958H131.972V26.9958ZM131.965 27.2538C131.237 27.2538 130.641 27.881 130.641 28.6551C130.641 29.4432 131.237 30.0625 131.972 30.0625C132.707 30.0698 133.294 29.4432 133.294 28.6624C133.294 27.8816 132.707 27.2538 131.972 27.2538H131.965V27.2538ZM131.656 29.6208H131.362V27.7692C131.517 27.7477 131.664 27.7262 131.885 27.7262C132.165 27.7262 132.347 27.7852 132.46 27.8657C132.568 27.9474 132.627 28.0721 132.627 28.2484C132.627 28.4929 132.466 28.6397 132.268 28.6993V28.7134C132.429 28.7435 132.539 28.8897 132.576 29.1619C132.619 29.45 132.664 29.56 132.693 29.6202H132.384C132.341 29.56 132.296 29.391 132.259 29.1471C132.216 28.9119 132.097 28.8234 131.861 28.8234H131.657V29.6208H131.656ZM131.656 28.5961H131.87C132.112 28.5961 132.317 28.507 132.317 28.2779C132.317 28.1157 132.201 27.9541 131.87 27.9541C131.774 27.9541 131.707 27.9615 131.656 27.9683V28.5961Z" fill="#C4C4C4"/>
</g>
<defs>
<clipPath id="clip0_878_100574">
<rect width="1109.97" height="31.0042" fill="white" transform="translate(0.02771)"/>
</clipPath>
</defs>
</svg>
