<svg width="52" height="24" viewBox="0 0 52 24" fill="none" xmlns="http://www.w3.org/2000/svg">
<path d="M1.31934 17V7.00586H2.95312V15.5986H7.18457V17H1.31934ZM10.3428 17H8.73633V9.43945H10.3428V17ZM8.64062 7.43652C8.64062 7.14941 8.7181 6.92839 8.87305 6.77344C9.03255 6.61849 9.25814 6.54102 9.5498 6.54102C9.83236 6.54102 10.0511 6.61849 10.2061 6.77344C10.3656 6.92839 10.4453 7.14941 10.4453 7.43652C10.4453 7.70996 10.3656 7.92643 10.2061 8.08594C10.0511 8.24089 9.83236 8.31836 9.5498 8.31836C9.25814 8.31836 9.03255 8.24089 8.87305 8.08594C8.7181 7.92643 8.64062 7.70996 8.64062 7.43652ZM19.2979 17H17.6846V12.3516C17.6846 11.7682 17.5661 11.333 17.3291 11.0459C17.0967 10.7588 16.7253 10.6152 16.2148 10.6152C15.5358 10.6152 15.0391 10.8158 14.7246 11.2168C14.4102 11.6178 14.2529 12.29 14.2529 13.2334V17H12.6465V9.43945H13.9043L14.1299 10.4307H14.2119C14.4398 10.0706 14.7633 9.79264 15.1826 9.59668C15.6019 9.40072 16.0667 9.30273 16.5771 9.30273C18.391 9.30273 19.2979 10.2256 19.2979 12.0713V17ZM23.085 13.0078L23.9941 11.873L26.2773 9.43945H28.1299L25.0879 12.6865L28.3213 17H26.4346L24.0078 13.6846L23.126 14.4092V17H21.5332V6.36328H23.126V11.5518L23.0439 13.0078H23.085Z" fill="#212121"/>
<path fill-rule="evenodd" clip-rule="evenodd" d="M43 21C47.9706 21 52 16.9706 52 12C52 7.02944 47.9706 3 43 3C38.0294 3 34 7.02944 34 12C34 16.9706 38.0294 21 43 21Z" fill="#0D6EFD"/>
<path d="M40.3775 12.9678C40.3775 11.555 40.6753 10.5036 41.271 9.81348C41.87 9.12337 42.7652 8.77832 43.9566 8.77832C44.3635 8.77832 44.6825 8.80273 44.9136 8.85156V10.0576C44.6239 9.99251 44.3374 9.95996 44.0542 9.95996C43.5366 9.95996 43.1135 10.0381 42.7847 10.1943C42.4592 10.3506 42.215 10.5817 42.0523 10.8877C41.8895 11.1937 41.7935 11.6283 41.7642 12.1914H41.8277C42.1499 11.638 42.6659 11.3613 43.3755 11.3613C44.0135 11.3613 44.5132 11.5615 44.8745 11.9619C45.2359 12.3623 45.4165 12.9157 45.4165 13.6221C45.4165 14.3838 45.2017 14.9876 44.772 15.4336C44.3423 15.8763 43.7466 16.0977 42.9849 16.0977C42.4575 16.0977 41.9969 15.9756 41.6031 15.7314C41.2124 15.4873 40.9097 15.1309 40.6949 14.6621C40.4833 14.1934 40.3775 13.6286 40.3775 12.9678ZM42.9556 14.8916C43.2779 14.8916 43.5253 14.7842 43.6978 14.5693C43.8703 14.3512 43.9566 14.042 43.9566 13.6416C43.9566 13.2933 43.8752 13.0199 43.7124 12.8213C43.5529 12.6195 43.3104 12.5186 42.9849 12.5186C42.6789 12.5186 42.4169 12.6178 42.1988 12.8164C41.9839 13.015 41.8765 13.2461 41.8765 13.5098C41.8765 13.8971 41.9774 14.2243 42.1792 14.4912C42.3843 14.7581 42.6431 14.8916 42.9556 14.8916Z" fill="white"/>
</svg>
