<svg width="16" height="16" viewBox="0 0 16 16" fill="none" xmlns="http://www.w3.org/2000/svg">
<g id="Social 02">
<path id="Icon Color" fill-rule="evenodd" clip-rule="evenodd" d="M5.16667 2H10.5C12.2489 2 13.6667 3.41777 13.6667 5.16667V10.5C13.6667 12.2489 12.2489 13.6667 10.5 13.6667H5.16667C3.41777 13.6667 2 12.2489 2 10.5V5.16667C2 3.41777 3.41777 2 5.16667 2ZM10.5 3H5.16667C3.97005 3 3 3.97005 3 5.16667V10.5C3 11.6966 3.97005 12.6667 5.16667 12.6667H10.5C11.6966 12.6667 12.6667 11.6966 12.6667 10.5V5.16667C12.6667 3.97005 11.6966 3 10.5 3ZM5.33333 7.83333C5.33333 6.45262 6.45262 5.33333 7.83333 5.33333C9.21405 5.33333 10.3333 6.45262 10.3333 7.83333C10.3333 9.21405 9.21405 10.3333 7.83333 10.3333C6.45262 10.3333 5.33333 9.21405 5.33333 7.83333ZM9.33333 7.83333C9.33333 7.00491 8.66176 6.33333 7.83333 6.33333C7.00491 6.33333 6.33333 7.00491 6.33333 7.83333C6.33333 8.66176 7.00491 9.33333 7.83333 9.33333C8.66176 9.33333 9.33333 8.66176 9.33333 7.83333ZM11.3288 4.76549C11.2957 4.52144 11.0865 4.33333 10.8333 4.33333C10.5572 4.33333 10.3333 4.55719 10.3333 4.834L10.3379 4.90185C10.371 5.1459 10.5802 5.334 10.8333 5.334C11.1095 5.334 11.3333 5.11014 11.3333 4.83333L11.3288 4.76549Z" fill="#212121"/>
</g>
</svg>
