<svg width="16" height="16" viewBox="0 0 16 16" fill="none" xmlns="http://www.w3.org/2000/svg">
<g id="Social 04">
<path id="Icon Color" fill-rule="evenodd" clip-rule="evenodd" d="M4.83301 3.33331C6.21372 3.33331 7.33301 4.4526 7.33301 5.83331C7.33301 6.63502 6.95564 7.34858 6.36885 7.80607L6.33167 7.83331L6.36885 7.86056C6.92304 8.29263 7.29043 8.95311 7.32954 9.70054L7.33301 9.83331C7.33301 11.1695 6.28477 12.2608 4.96578 12.3298L4.83301 12.3333H1.83301C1.57988 12.3333 1.37068 12.1452 1.33757 11.9012L1.33301 11.8333V7.83331V3.83331C1.33301 3.58018 1.52111 3.37099 1.76516 3.33788L1.83301 3.33331H4.83301ZM2.33301 8.33331V11.3333H4.83301C5.62692 11.3333 6.27677 10.7165 6.32955 9.93601L6.33301 9.83331C6.33301 9.0394 5.71623 8.38955 4.93571 8.33677L4.83301 8.33331L2.33301 8.33331ZM4.8531 7.33371C4.84644 7.33345 4.83974 7.33331 4.83301 7.33331H2.33301V4.33331H4.83301L4.93571 4.33677C5.71623 4.38955 6.33301 5.0394 6.33301 5.83331C6.33301 6.62722 5.71623 7.27708 4.93571 7.32985L4.8531 7.33371ZM14.333 8.49998C14.333 6.93517 13.0645 5.66665 11.4997 5.66665C9.93487 5.66665 8.66634 6.93517 8.66634 8.49998V9.83331L8.67102 9.90156L8.69334 10.0388C8.91481 11.2181 9.85939 12.1364 11.0559 12.3166C12.2984 12.5037 13.5157 11.8501 14.0463 10.7111C14.1628 10.4608 14.0544 10.1633 13.8041 10.0467C13.5538 9.93014 13.2563 10.0386 13.1398 10.2889C12.7965 11.0259 12.0088 11.4488 11.2048 11.3277L11.0856 11.3057C10.3786 11.1512 9.8278 10.5935 9.68214 9.88457L9.66634 9.79531V8.99998H13.833L13.9009 8.99542C14.1449 8.96231 14.333 8.75311 14.333 8.49998ZM9.74679 7.96119C9.97692 7.2116 10.6747 6.66665 11.4997 6.66665L11.6114 6.66999C12.3872 6.71661 13.0329 7.24567 13.2526 7.96119L13.263 7.99998H9.73567L9.74679 7.96119ZM12.9997 3.83331C12.9997 3.55717 12.7758 3.33331 12.4997 3.33331H10.4997L10.4318 3.33788C10.1878 3.37099 9.99967 3.58018 9.99967 3.83331C9.99967 4.10946 10.2235 4.33331 10.4997 4.33331H12.4997L12.5675 4.32875C12.8116 4.29564 12.9997 4.08644 12.9997 3.83331Z" fill="#212121"/>
</g>
</svg>
