<svg width="16" height="16" viewBox="0 0 16 16" fill="none" xmlns="http://www.w3.org/2000/svg">
<g id="Social 01">
<path id="Icon Color" fill-rule="evenodd" clip-rule="evenodd" d="M11.8333 1.33331C12.0865 1.33331 12.2957 1.52142 12.3288 1.76547L12.3333 1.83331V4.49998C12.3333 4.75311 12.1452 4.96231 11.9012 4.99542L11.8333 4.99998H9.83333C9.75444 4.99998 9.68834 5.0548 9.67107 5.12843L9.66667 5.16665V5.99998H11.8333C12.1369 5.99998 12.3651 6.26627 12.33 6.55835L12.3184 6.62125L11.6517 9.28791C11.6023 9.48577 11.4388 9.63113 11.2419 9.66099L11.1667 9.66665H9.66667V13.8333C9.66667 14.0864 9.47856 14.2956 9.23451 14.3287L9.16667 14.3333H6.5C6.24687 14.3333 6.03767 14.1452 6.00456 13.9012L6 13.8333V9.66665H4.5C4.24687 9.66665 4.03767 9.47854 4.00456 9.23449L4 9.16665V6.49998C4 6.24685 4.1881 6.03765 4.43215 6.00454L4.5 5.99998H6V5.16665C6 3.09879 7.63735 1.41335 9.6863 1.33608L9.83333 1.33331H11.8333ZM11.3333 2.33331H9.83333C8.31455 2.33331 7.07488 3.52832 7.00327 5.02937L7 5.16665V6.49998C7 6.75311 6.8119 6.96231 6.56785 6.99542L6.5 6.99998H5V8.66665H6.5C6.75313 8.66665 6.96233 8.85475 6.99544 9.0988L7 9.16665V13.3333H8.66667V9.16665C8.66667 8.91352 8.85477 8.70432 9.09882 8.67121L9.16667 8.66665H10.776L11.1927 6.99998H9.16667C8.91354 6.99998 8.70434 6.81188 8.67123 6.56783L8.66667 6.49998V5.16665C8.66667 4.55453 9.13807 4.05252 9.73765 4.00385L9.83333 3.99998H11.3333V2.33331Z" fill="#212121"/>
</g>
</svg>
