<svg width="16" height="16" viewBox="0 0 16 16" fill="none" xmlns="http://www.w3.org/2000/svg">
<g id="Social 03">
<path id="Icon Color" fill-rule="evenodd" clip-rule="evenodd" d="M13.7854 5.58089L13.7886 5.25373L13.7919 5.29773C13.7932 5.30625 13.7948 5.30793 13.7961 5.30744L14.0328 4.83567L14.335 4.24544L14.5239 3.86204L14.6073 3.68538C14.7667 3.3418 14.8821 3.05604 14.9534 2.81597L14.9686 2.75907L14.973 2.74992C15.0795 2.45371 14.8866 2.07507 14.5006 2.07507L14.4265 2.08057L14.3553 2.09661L14.2813 2.12607C14.1555 2.1877 14.0259 2.24383 13.8885 2.29665L13.5961 2.40046L13.3461 2.47847L13.0273 2.5691L12.646 2.67373L12.5646 2.60259C11.7294 1.91334 10.5928 1.83109 9.40597 2.27548L9.26711 2.331C8.12541 2.81693 7.37648 3.88001 7.33611 5.09537L7.33465 5.39373L7.21396 5.38756C5.47949 5.26 3.94455 4.39203 2.90786 2.944C2.69487 2.6465 2.24496 2.67101 2.06555 2.98989L2.00397 3.10721L1.97213 3.17178C1.50566 4.13613 1.19806 5.31264 1.31096 6.55215L1.32998 6.72846C1.51989 8.24819 2.3615 9.54953 3.96073 10.5108L4.13798 10.6137L4.02274 10.6783C3.04246 11.2069 2.15826 11.4399 1.18742 11.4021C0.659257 11.3816 0.464585 12.0878 0.928692 12.3408C3.29074 13.6282 5.82147 14.0247 7.9967 13.3932C10.6492 12.6227 12.6668 10.6371 13.4393 7.88696C13.647 7.13318 13.763 6.35947 13.7854 5.58089ZM12.1271 3.56685C12.2558 3.71203 12.4568 3.76969 12.6428 3.71479L13.4231 3.49705L13.616 3.44123L13.4977 3.68446L12.9449 4.76794L12.8777 4.90739C12.8129 5.04827 12.7931 5.12113 12.7898 5.21308L12.7893 5.25392C12.7937 6.0521 12.6883 6.84836 12.4759 7.61908C11.7988 10.0296 10.0428 11.7577 7.71783 12.4331L7.5125 12.4888C6.21581 12.8169 4.76427 12.7364 3.30371 12.2758L3.00998 12.1779L3.17826 12.1282C3.91421 11.8949 4.65024 11.5142 5.44517 10.9847C5.77453 10.7653 5.73056 10.2684 5.36779 10.1102C3.3675 9.23819 2.44563 7.98544 2.30684 6.46161L2.29219 6.24186C2.26419 5.58371 2.37737 4.93729 2.57075 4.3515L2.62864 4.18523L2.65265 4.21322C3.98622 5.66256 5.83151 6.4533 7.84743 6.40174C8.1185 6.3948 8.33464 6.17306 8.33464 5.9019V5.23523C8.3223 4.33139 8.88006 3.54039 9.75665 3.21215C10.7438 2.84249 11.5847 2.95481 12.1271 3.56685Z" fill="#212121"/>
</g>
</svg>
